<?xml version="1.0" encoding="UTF-8"?><!DOCTYPE svg PUBLIC "-//W3C//DTD SVG 1.1//EN" "http://www.w3.org/Graphics/SVG/1.1/DTD/svg11.dtd"><svg xmlns="http://www.w3.org/2000/svg" xmlns:xlink="http://www.w3.org/1999/xlink"><symbol id="flag" viewBox="0 0 57 58"><g fill-rule="nonzero" fill="none"><path d="M56.89 10.53l-1.39 6.2-1.5 6.69-1.5 6.7-1.09 4.86a1 1 0 01-1.64.53 12.385 12.385 0 00-4.87-2.86 17.557 17.557 0 00-6.92-.52 62.62 62.62 0 00-7.32 1.31 64.717 64.717 0 01-7.32 1.3c-2.318.289-4.67.112-6.92-.52v-.01a12.761 12.761 0 01-6.1-4.15l1.5-6.69 1.51-6.7 1.5-6.69 1.5-6.7a12.786 12.786 0 006.1 4.16c2.246.632 4.595.808 6.91.52a62.559 62.559 0 007.32-1.3 65.281 65.281 0 017.33-1.3 17.521 17.521 0 016.91.52 12.551 12.551 0 015.76 3.76 1 1 0 01.23.89z" fill="#E6E7E8"/><path d="M20.93 14.14c-.51 2.23-1.01 4.45-1.51 6.68a12.737 12.737 0 01-6.09-4.15l1.5-6.69a12.786 12.786 0 006.1 4.16zM17.92 27.52l-.3 1.34c-.4 1.79-.8 3.573-1.2 5.35a12.761 12.761 0 01-6.1-4.15l1.5-6.69a12.691 12.691 0 006.1 4.15zM29.34 7.96l-1.5 6.7a17.507 17.507 0 01-6.91-.52c.49-2.23 1-4.47 1.5-6.7 2.246.632 4.595.808 6.91.52zM32.16 26.74l-.3 1.34-1.2 5.36a64.717 64.717 0 01-7.32 1.3l1.2-5.36.3-1.34a65.517 65.517 0 007.32-1.3zM43.99 5.36l-1.5 6.69c-2.467.292-4.915.73-7.33 1.31l1.5-6.7a65.281 65.281 0 017.33-1.3zM46.4 25.97l-.3 1.33-1.2 5.35a17.557 17.557 0 00-6.92-.52l1.2-5.35.3-1.34c2.319-.29 4.672-.11 6.92.53zM54 23.42l-1.5 6.7a12.761 12.761 0 00-6.1-4.15l1.5-6.7a12.761 12.761 0 016.1 4.15zM56.89 10.53l-1.39 6.2a12.761 12.761 0 00-6.1-4.15l1.5-6.7a12.551 12.551 0 015.76 3.76 1 1 0 01.23.89z" fill="#2C2F38"/><path d="M49.4 12.58l-1.5 6.69a17.338 17.338 0 00-6.91-.53l1.5-6.69c2.316-.29 4.666-.11 6.91.53zM26.34 21.35l-1.5 6.69a17.193 17.193 0 01-6.92-.52l1.5-6.7c2.248.64 4.601.82 6.92.53zM35.16 13.36l-1.5 6.68a62.994 62.994 0 01-7.32 1.31l1.5-6.69a65.115 65.115 0 007.32-1.3z" fill="#2C2F38"/><path d="M40.99 18.74c-.51 2.23-1.01 4.47-1.51 6.7a64.717 64.717 0 00-7.32 1.3l1.5-6.7a65.281 65.281 0 017.33-1.3z" fill="#2C2F38"/><path d="M17.38 2.77a3.069 3.069 0 01-.07.6L5.54 55.86a2.733 2.733 0 01-3.28 2.07l-.1-.03a2.736 2.736 0 01-1.98-3.24l11.77-52.5A2.748 2.748 0 0115.23.09h.02a2.761 2.761 0 012.13 2.68z" fill="#AF8066"/><path d="M17.38 2.77a3.069 3.069 0 01-.07.6L5.54 55.86a2.733 2.733 0 01-3.28 2.07l-.1-.03L15.25.09a2.761 2.761 0 012.13 2.68z" fill="#7F5B53"/></g></symbol></svg>