<?xml version="1.0" standalone="no"?>
<!DOCTYPE svg PUBLIC "-//W3C//DTD SVG 20010904//EN"
 "http://www.w3.org/TR/2001/REC-SVG-20010904/DTD/svg10.dtd">
<svg version="1.0" xmlns="http://www.w3.org/2000/svg"
 width="550.000000pt" height="550.000000pt" viewBox="0 0 550.000000 550.000000"
 preserveAspectRatio="xMidYMid meet">
<metadata>
Created by potrace 1.11, written by Peter Selinger 2001-2013
</metadata>
<g transform="translate(0.000000,550.000000) scale(0.100000,-0.100000)"
fill="#000000" stroke="none">
<path d="M333 3998 c13 -35 228 -629 477 -1321 l454 -1257 374 2 374 3 301
803 c165 441 304 802 307 802 4 0 137 -361 297 -802 l291 -803 374 -3 374 -2
474 1307 c260 720 476 1314 478 1321 3 10 -66 12 -339 10 l-344 -3 -312 -865
c-171 -476 -315 -871 -320 -879 -6 -9 -110 273 -318 865 l-310 879 -330 2
-330 3 -319 -880 c-176 -484 -323 -877 -327 -873 -4 5 -144 400 -311 878
l-304 870 -367 3 -367 2 23 -62z"/>
</g>
</svg>
